<svg role="img" viewBox="0 0 24 24" xmlns="http://www.w3.org/2000/svg" version="1.1" xmlns:xlink="http://www.w3.org/1999/xlink" transform="matrix(-1.8369701987210297e-16,-1,1,-1.8369701987210297e-16,0,0)"><title>podbean</title><path d="M10.152 12a4.037 4.037 0 1 1-8.075 0 4.037 4.037 0 0 1 8.075 0zM13.508 2.9L12.03 4.377a9.642 9.642 0 0 1 0 15.246l1.477 1.477a11.712 11.712 0 0 0 0-18.2zm-2.735 2.735L9.349 7.057c1.61 1.057 2.675 2.878 2.675 4.943s-1.065 3.886-2.675 4.943l1.423 1.422A7.884 7.884 0 0 0 14.005 12a7.884 7.884 0 0 0-3.233-6.365z"></path></svg>